<?xml version="1.0" encoding="utf-8"?>
<!-- Generator: Adobe Illustrator 23.0.1, SVG Export Plug-In . SVG Version: 6.00 Build 0)  -->
<svg version="1.1" id="Livello_1" xmlns="http://www.w3.org/2000/svg" xmlns:xlink="http://www.w3.org/1999/xlink" x="0px" y="0px"
	 viewBox="0 0 841.89 595.28" style="enable-background:new 0 0 841.89 595.28;" xml:space="preserve">
<style type="text/css">
	.st0{fill:#283549;}
	.st1{fill:#A01F20;}
</style>
<g>
	<path class="st0" d="M236.08,319.05l7.24,8.02c-0.35,0.3-0.73,0.56-1.08,0.87c-17.56,15.84-22.28,40.93-14.22,63.54
		c0.26-0.28,0.48-0.59,0.78-0.86c5.37-4.84,13.64-4.42,18.48,0.95c4.84,5.37,4.42,13.64-0.95,18.48c-1.7,1.53-3.7,2.48-5.78,2.96
		c0.42,0.5,0.8,1.02,1.23,1.5c23.67,26.24,62.26,30.01,86.17,8.43c0.35-0.31,0.64-0.66,0.98-0.99l6.87,7.61
		c2.42,2.69,6.57,2.9,9.25,0.47l12.44-11.23c2.69-2.42,2.9-6.57,0.48-9.25l-13.53-14.99c-19.62-21.74-43.62-48.34-72.31-80.14
		l-13.89-15.4c-2.42-2.69-6.57-2.9-9.25-0.47l-12.44,11.23C233.87,312.22,233.66,316.36,236.08,319.05z M287.19,404.48
		c4.84,5.37,4.42,13.64-0.95,18.48c-5.37,4.84-13.64,4.42-18.48-0.95c-4.84-5.37-4.42-13.64,0.95-18.48
		C274.07,398.68,282.35,399.11,287.19,404.48z M256.9,351.37c4.84,5.37,4.42,13.64-0.95,18.48c-5.37,4.84-13.64,4.42-18.48-0.95
		c-4.84-5.37-4.42-13.64,0.95-18.49S252.06,346,256.9,351.37z"/>
	<g>
		<g>
			<path class="st1" d="M212.15,406.15l-5.26,2.35l-0.39-4.98l5.73-2.58c0.51-0.23,1.07-0.33,1.62-0.29l5,0.34l-1.95,28.73
				l-6.29-0.43L212.15,406.15z"/>
		</g>
		<g>
			<path class="st1" d="M144.98,512.26l1.29,3.04l-2.85,0.17l-1.41-3.31c-0.13-0.29-0.18-0.61-0.15-0.93l0.25-2.86l16.41,1.43
				l-0.31,3.6L144.98,512.26z"/>
		</g>
		<g>
			<path class="st1" d="M188.57,472.1l-4.52,1.16l0.36-4.02l4.92-1.28c0.44-0.11,0.9-0.12,1.34-0.01l3.94,0.95l-5.47,22.66
				l-4.96-1.2L188.57,472.1z"/>
		</g>
		<g>
			<path class="st1" d="M172,456.52l6.07,5.61l-6.34,3.33l-6.64-6.09c-0.59-0.54-1.04-1.22-1.3-1.97l-2.38-6.78l38.96-13.64
				l2.99,8.54L172,456.52z"/>
		</g>
		<g>
			<path class="st1" d="M234.7,463.08c-3.13,12.09-9.34,17.6-17.22,15.56c-6.94-1.8-9.96-9.53-7.03-21.31
				c3.09-11.92,9.93-17.15,17.15-15.29C235.1,443.98,237.64,451.75,234.7,463.08z M216.53,459.34c-2.39,9.24-1.73,12.88,2.64,14.02
				c4.92,1.27,6.21-2.6,8.56-11.68c2.27-8.75,3.06-12.67-1.92-13.96C221.6,446.63,219.04,449.66,216.53,459.34z"/>
		</g>
		<g>
			<path class="st1" d="M174.34,492.23c1.24,8.68-1.29,13.93-6.95,14.74c-4.99,0.71-9.03-3.48-10.32-11.91
				c-1.23-8.56,1.79-13.8,6.98-14.55C169.43,479.75,173.18,484.1,174.34,492.23z M161.56,494.73c0.95,6.64,2.37,8.82,5.51,8.37
				c3.54-0.51,3.32-3.37,2.38-9.89c-0.9-6.28-1.44-9.04-5.02-8.53C161.4,485.12,160.56,487.78,161.56,494.73z"/>
		</g>
	</g>
	<g>
		<path class="st0" d="M409.27,355.32h34.06l-1.49,8.49c16.91-11.71,35.35-25.05,53.89-38.78h-47.18l-2,11.36h-34.02l2-11.36h-26.6
			l19.31-109.81h53.04l2-11.36h34.09l-2,11.36h26.47l-18.44,104.85c65.54-48.82,130.11-100.68,130.11-100.68
			c16.88-15.23,18.21-41.25,2.99-58.13L533.69,48.41c-15.23-16.88-41.25-18.21-58.13-2.98c0,0-225.53,228.32-210.3,245.19
			l101.82,112.84c3.2,3.55,16.79-2.55,36.24-14.35L409.27,355.32z M332.3,281.26c-4.3,5.05-11.88,5.66-16.93,1.35l-2.18-1.86
			c-5.05-4.3-5.66-11.88-1.35-16.93L456.08,94.49c4.3-5.05,11.88-5.66,16.93-1.35l2.18,1.86c5.05,4.3,5.66,11.88,1.35,16.93
			L332.3,281.26z"/>
		<path class="st0" d="M440.33,328.81l0.67-3.79h-0.04l18-102.24h-45.4l-16.66,94.67h26.45l-2,11.36H440.33z M419.21,298.52l10-56.8
			h7.5l-10.01,56.8H419.21z"/>
		<path class="st0" d="M411.91,383.77c6.68-4.24,13.88-9,21.46-14.16l1.18-6.72h-18.97L411.91,383.77z"/>
		<path class="st0" d="M512.02,222.78h-26.45l2-11.36H468.6l-18.68,106.03h45.44L512.02,222.78z M479.73,298.52h-7.5l10.01-56.8
			h7.49L479.73,298.52z"/>
	</g>
	<polygon class="st0" points="583.97,366.67 576.4,366.67 557.08,476.48 564.66,476.48 	"/>
	<path class="st1" d="M529.98,448.06c-6.71-5.13-15.73-0.25-18.6,10.56c-2.87,10.81-5.88,9.85-16.99,10.57
		c-9.35,0.61-19.76-3.93-20.5-21.02c-0.74-17.09-1.08-22.9,15.01-28.79c2.28,0.17,4.42,0.24,6.41,0.23
		c3.7,0.22,8.15,4.58,10.84,3.95c4.69-1.09,7.01-5.34,6.6-9.84c-0.37-4.14-3.35-7.2-8.16-7.44c-2.76-0.14-6.45,3.89-10.05,4.77
		c-1.96,0.34-4.05,0.79-6.26,1.37c-16.89-2.92-17.59-8.69-19.92-25.64s6.95-25.03,16.25-26.1c11.06-1.27,14.01-1,18.77,9.12
		c4.76,10.12,14.5,13.31,20.19,7.06c2.99-3.28,2.91-8.59,2.33-11.5c-0.58-2.91-7.4-16.36-30.67-16.66
		c-23.26-0.31-51.21,9.62-51.01,40.31c1.79,17.72,16.22,25.27,27.94,28.37c-10.97,5.15-23.81,15.16-22.41,32.91
		c5.29,30.24,34.57,35,57.4,30.53c22.83-4.47,27.14-18.92,27.19-21.88C534.38,455.99,533.51,450.75,529.98,448.06z"/>
	<g>
		<path class="st0" d="M415.59,362.88l-3.65,20.7c6.67-4.24,13.87-8.99,21.46-14.15l1.15-6.55H415.59z"/>
		<path class="st0" d="M441.87,363.62c-2.87,1.99-5.69,3.92-8.47,5.81l-0.85,4.81h26.45l-3.41,18.93h-26.38l-10.01,56.8h7.49
			l8.67-49.35h18.97l-12,68.29h-45.44l15.03-85.32c-2.97,1.89-5.84,3.67-8.59,5.33l-15.41,87.56h60.59l19.31-109.81h-26.51
			L441.87,363.62z"/>
		<polygon class="st0" points="535.33,449.97 542.84,449.97 548.17,419.68 540.54,419.68 		"/>
		<polygon class="st0" points="513.03,468.91 525.03,400.75 551.5,400.75 552.84,393.17 526.24,393.17 529.69,374.24 575.06,374.24 
			576.4,366.67 523.38,366.67 504.07,476.48 557.08,476.48 558.42,468.91 		"/>
		<polygon class="st0" points="558.47,468.91 575.14,374.24 575.06,374.24 558.42,468.91 		"/>
		<path class="st0" d="M583.97,366.67l-19.31,109.81h79.52l19.31-109.81H583.97z M637.99,468.91h-18.84l13.2-75.73h-7.61
			l-13.25,75.73h-18.97l13.25-75.73h-7.56l-13.2,75.73h-18.97l16.66-94.67h71.95L637.99,468.91z"/>
	</g>
</g>
</svg>
